<svg width="29" height="29" viewBox="0 0 29 29" fill="none" xmlns="http://www.w3.org/2000/svg">
<path d="M20.3909 7.8148C20.9849 7.22353 20.9849 6.25997 20.3909 5.66869L18.2058 3.48191L18.209 3.48503C17.6307 2.90627 16.6366 1.91143 15.2299 0.506754C14.5672 -0.140835 13.4949 -0.134578 12.8385 0.522396L0.52826 12.8328C0.37076 12.9894 0.245761 13.1756 0.160463 13.3807C0.0751639 13.5858 0.03125 13.8057 0.03125 14.0279C0.03125 14.2501 0.0751639 14.47 0.160463 14.6751C0.245761 14.8802 0.37076 15.0664 0.52826 15.223L12.8354 27.5303C13.1527 27.8473 13.5827 28.0253 14.0311 28.0253C14.4794 28.0253 14.9094 27.8473 15.2268 27.5303L20.3878 22.3683C20.9817 21.7771 20.9817 20.8135 20.3878 20.2222C20.1025 19.9381 19.7164 19.7787 19.314 19.7787C18.9116 19.7787 18.5255 19.9381 18.2402 20.2222L14.3327 24.139C14.1702 24.3017 13.917 24.3017 13.7544 24.139L3.92311 14.3095C3.76055 14.1468 3.76055 13.8934 3.92311 13.7307L13.7513 3.90112C13.7638 3.8886 13.7794 3.87922 13.7919 3.8667C13.9545 3.73844 14.1795 3.75095 14.3296 3.90112L18.2434 7.8148C18.8373 8.40921 19.8001 8.40921 20.3909 7.8148V7.8148ZM10.7722 14.0905C10.7722 14.9716 11.1223 15.8167 11.7455 16.4398C12.3686 17.0628 13.2138 17.4129 14.0951 17.4129C14.9764 17.4129 15.8216 17.0628 16.4448 16.4398C17.068 15.8167 17.4181 14.9716 17.4181 14.0905C17.4181 13.2093 17.068 12.3642 16.4448 11.7412C15.8216 11.1181 14.9764 10.7681 14.0951 10.7681C13.2138 10.7681 12.3686 11.1181 11.7455 11.7412C11.1223 12.3642 10.7722 13.2093 10.7722 14.0905ZM27.5339 12.8829L23.692 9.0568C23.098 8.46552 22.1352 8.46552 21.5444 9.05992C21.4032 9.20062 21.2912 9.36783 21.2147 9.55198C21.1383 9.73613 21.0989 9.93357 21.0989 10.133C21.0989 10.3324 21.1383 10.5298 21.2147 10.714C21.2912 10.8981 21.4032 11.0653 21.5444 11.206L24.139 13.7995C24.3016 13.9622 24.3016 14.2156 24.139 14.3783L21.5819 16.9342C21.4407 17.0749 21.3287 17.2421 21.2522 17.4263C21.1758 17.6104 21.1364 17.8079 21.1364 18.0073C21.1364 18.2067 21.1758 18.4041 21.2522 18.5883C21.3287 18.7724 21.4407 18.9396 21.5819 19.0803C21.8672 19.3644 22.2533 19.5239 22.6557 19.5239C23.0582 19.5239 23.4442 19.3644 23.7295 19.0803L27.537 15.273C27.6939 15.1161 27.8184 14.9297 27.9032 14.7245C27.988 14.5193 28.0315 14.2994 28.0312 14.0773C28.031 13.8553 27.9869 13.6354 27.9015 13.4305C27.8162 13.2255 27.6912 13.0394 27.5339 12.8829V12.8829Z" fill="#E4A951"/>
</svg>
