<svg width="115" height="117" viewBox="0 0 115 117" fill="none" xmlns="http://www.w3.org/2000/svg">
<path d="M8.656 16.68L15.388 31.86L22.164 16.68H24.496L15.432 37.052L6.324 16.68H8.656ZM17.236 39.12L27.84 16.68H30.128L19.348 39.516V51H17.236V39.12ZM11.208 39.472L0.384 16.68H2.672L13.32 38.988V51H11.208V39.472ZM54.9072 16.68H57.0192V51H54.9072V16.68ZM48.7472 16.68H50.8592V51H48.7472V16.68ZM80.1103 16.68H93.3983C96.5369 16.68 99.3236 17.384 101.758 18.792C104.193 20.1707 106.1 22.1507 107.478 24.732C108.857 27.284 109.546 30.32 109.546 33.84C109.546 37.3893 108.857 40.4547 107.478 43.036C106.129 45.588 104.252 47.5533 101.846 48.932C99.4409 50.3107 96.6543 51 93.4863 51H80.1103V16.68ZM93.4863 48.888C96.2436 48.888 98.6636 48.2867 100.746 47.084C102.858 45.852 104.501 44.1067 105.674 41.848C106.848 39.5893 107.434 36.92 107.434 33.84C107.434 30.76 106.833 28.0907 105.63 25.832C104.428 23.5733 102.77 21.8427 100.658 20.64C98.5756 19.408 96.1556 18.792 93.3983 18.792H82.2223V48.888H93.4863ZM86.0943 21.388H92.5623C94.6449 21.388 96.5076 21.8427 98.1503 22.752C99.7929 23.6613 101.098 25.04 102.066 26.888C103.034 28.736 103.518 31.0533 103.518 33.84C103.518 36.5387 103.049 38.812 102.11 40.66C101.172 42.508 99.8809 43.916 98.2383 44.884C96.6249 45.8227 94.7623 46.292 92.6503 46.292H86.0943V21.388ZM92.6503 44.18C95.2316 44.18 97.3289 43.2853 98.9423 41.496C100.585 39.7067 101.406 37.1547 101.406 33.84C101.406 31.552 101.025 29.6453 100.262 28.12C99.4996 26.5653 98.4436 25.4067 97.0943 24.644C95.7743 23.8813 94.2636 23.5 92.5623 23.5H88.2063V44.18H92.6503Z" fill="white"/>
<path d="M8.67 88.965L5.68 94.724V98H4.198V94.724L1.195 88.965H2.846L4.939 93.398L7.032 88.965H8.67ZM12.9531 98.117C12.2771 98.117 11.6661 97.9653 11.1201 97.662C10.5741 97.35 10.1451 96.9167 9.83309 96.362C9.52109 95.7987 9.36509 95.1487 9.36509 94.412C9.36509 93.684 9.52543 93.0383 9.84609 92.475C10.1668 91.9117 10.6044 91.4783 11.1591 91.175C11.7138 90.8717 12.3334 90.72 13.0181 90.72C13.7028 90.72 14.3224 90.8717 14.8771 91.175C15.4318 91.4783 15.8694 91.9117 16.1901 92.475C16.5108 93.0383 16.6711 93.684 16.6711 94.412C16.6711 95.14 16.5064 95.7857 16.1771 96.349C15.8478 96.9123 15.3971 97.35 14.8251 97.662C14.2618 97.9653 13.6378 98.117 12.9531 98.117ZM12.9531 96.83C13.3344 96.83 13.6898 96.739 14.0191 96.557C14.3571 96.375 14.6301 96.102 14.8381 95.738C15.0461 95.374 15.1501 94.932 15.1501 94.412C15.1501 93.892 15.0504 93.4543 14.8511 93.099C14.6518 92.735 14.3874 92.462 14.0581 92.28C13.7288 92.098 13.3734 92.007 12.9921 92.007C12.6108 92.007 12.2554 92.098 11.9261 92.28C11.6054 92.462 11.3498 92.735 11.1591 93.099C10.9684 93.4543 10.8731 93.892 10.8731 94.412C10.8731 95.1833 11.0681 95.7813 11.4581 96.206C11.8568 96.622 12.3551 96.83 12.9531 96.83ZM24.6231 90.837V98H23.1411V97.155C22.9071 97.4497 22.5995 97.6837 22.2181 97.857C21.8455 98.0217 21.4468 98.104 21.0221 98.104C20.4588 98.104 19.9518 97.987 19.5011 97.753C19.0591 97.519 18.7081 97.1723 18.4481 96.713C18.1968 96.2537 18.0711 95.699 18.0711 95.049V90.837H19.5401V94.828C19.5401 95.4693 19.7005 95.9633 20.0211 96.31C20.3418 96.648 20.7795 96.817 21.3341 96.817C21.8888 96.817 22.3265 96.648 22.6471 96.31C22.9765 95.9633 23.1411 95.4693 23.1411 94.828V90.837H24.6231ZM28.0605 91.877C28.2772 91.513 28.5632 91.2313 28.9185 91.032C29.2825 90.824 29.7115 90.72 30.2055 90.72V92.254H29.8285C29.2478 92.254 28.8058 92.4013 28.5025 92.696C28.2078 92.9907 28.0605 93.502 28.0605 94.23V98H26.5785V90.837H28.0605V91.877ZM36.4267 88.965V98H34.9447V88.965H36.4267ZM37.8785 94.386C37.8785 93.6667 38.0258 93.0297 38.3205 92.475C38.6238 91.9203 39.0311 91.4913 39.5425 91.188C40.0625 90.876 40.6388 90.72 41.2715 90.72C41.7395 90.72 42.1988 90.824 42.6495 91.032C43.1088 91.2313 43.4728 91.5 43.7415 91.838V88.38H45.2365V98H43.7415V96.921C43.4988 97.2677 43.1608 97.5537 42.7275 97.779C42.3028 98.0043 41.8131 98.117 41.2585 98.117C40.6345 98.117 40.0625 97.961 39.5425 97.649C39.0311 97.3283 38.6238 96.8863 38.3205 96.323C38.0258 95.751 37.8785 95.1053 37.8785 94.386ZM43.7415 94.412C43.7415 93.918 43.6375 93.489 43.4295 93.125C43.2301 92.761 42.9658 92.4837 42.6365 92.293C42.3071 92.1023 41.9518 92.007 41.5705 92.007C41.1891 92.007 40.8338 92.1023 40.5045 92.293C40.1751 92.475 39.9065 92.748 39.6985 93.112C39.4991 93.4673 39.3995 93.892 39.3995 94.386C39.3995 94.88 39.4991 95.3133 39.6985 95.686C39.9065 96.0587 40.1751 96.3447 40.5045 96.544C40.8425 96.7347 41.1978 96.83 41.5705 96.83C41.9518 96.83 42.3071 96.7347 42.6365 96.544C42.9658 96.3533 43.2301 96.076 43.4295 95.712C43.6375 95.3393 43.7415 94.906 43.7415 94.412ZM53.748 94.243C53.748 94.5117 53.7307 94.7543 53.696 94.971H48.223C48.2663 95.543 48.4787 96.0023 48.86 96.349C49.2413 96.6957 49.7093 96.869 50.264 96.869C51.0613 96.869 51.6247 96.5353 51.954 95.868H53.553C53.3363 96.5267 52.942 97.0683 52.37 97.493C51.8067 97.909 51.1047 98.117 50.264 98.117C49.5793 98.117 48.964 97.9653 48.418 97.662C47.8807 97.35 47.456 96.9167 47.144 96.362C46.8407 95.7987 46.689 95.1487 46.689 94.412C46.689 93.6753 46.8363 93.0297 47.131 92.475C47.4343 91.9117 47.8547 91.4783 48.392 91.175C48.938 90.8717 49.562 90.72 50.264 90.72C50.94 90.72 51.5423 90.8673 52.071 91.162C52.5997 91.4567 53.0113 91.8727 53.306 92.41C53.6007 92.9387 53.748 93.5497 53.748 94.243ZM52.201 93.775C52.1923 93.229 51.9973 92.7913 51.616 92.462C51.2347 92.1327 50.7623 91.968 50.199 91.968C49.6877 91.968 49.25 92.1327 48.886 92.462C48.522 92.7827 48.3053 93.2203 48.236 93.775H52.201ZM54.7124 94.386C54.7124 93.6667 54.8598 93.0297 55.1544 92.475C55.4578 91.9203 55.8651 91.4913 56.3764 91.188C56.8964 90.876 57.4684 90.72 58.0924 90.72C58.6558 90.72 59.1454 90.8327 59.5614 91.058C59.9861 91.2747 60.3241 91.5477 60.5754 91.877V90.837H62.0704V98H60.5754V96.934C60.3241 97.272 59.9818 97.5537 59.5484 97.779C59.1151 98.0043 58.6211 98.117 58.0664 98.117C57.4511 98.117 56.8878 97.961 56.3764 97.649C55.8651 97.3283 55.4578 96.8863 55.1544 96.323C54.8598 95.751 54.7124 95.1053 54.7124 94.386ZM60.5754 94.412C60.5754 93.918 60.4714 93.489 60.2634 93.125C60.0641 92.761 59.7998 92.4837 59.4704 92.293C59.1411 92.1023 58.7858 92.007 58.4044 92.007C58.0231 92.007 57.6678 92.1023 57.3384 92.293C57.0091 92.475 56.7404 92.748 56.5324 93.112C56.3331 93.4673 56.2334 93.892 56.2334 94.386C56.2334 94.88 56.3331 95.3133 56.5324 95.686C56.7404 96.0587 57.0091 96.3447 57.3384 96.544C57.6764 96.7347 58.0318 96.83 58.4044 96.83C58.7858 96.83 59.1411 96.7347 59.4704 96.544C59.7998 96.3533 60.0641 96.076 60.2634 95.712C60.4714 95.3393 60.5754 94.906 60.5754 94.412ZM65.499 88.38V98H64.017V88.38H65.499ZM73.7727 88.965C74.7347 88.965 75.5753 89.1513 76.2947 89.524C77.0227 89.888 77.5817 90.4167 77.9717 91.11C78.3703 91.7947 78.5697 92.5963 78.5697 93.515C78.5697 94.4337 78.3703 95.231 77.9717 95.907C77.5817 96.583 77.0227 97.103 76.2947 97.467C75.5753 97.8223 74.7347 98 73.7727 98H70.8217V88.965H73.7727ZM73.7727 96.791C74.83 96.791 75.6403 96.505 76.2037 95.933C76.767 95.361 77.0487 94.555 77.0487 93.515C77.0487 92.4663 76.767 91.6473 76.2037 91.058C75.6403 90.4687 74.83 90.174 73.7727 90.174H72.3037V96.791H73.7727ZM86.6035 94.243C86.6035 94.5117 86.5861 94.7543 86.5515 94.971H81.0785C81.1218 95.543 81.3341 96.0023 81.7155 96.349C82.0968 96.6957 82.5648 96.869 83.1195 96.869C83.9168 96.869 84.4801 96.5353 84.8095 95.868H86.4085C86.1918 96.5267 85.7975 97.0683 85.2255 97.493C84.6621 97.909 83.9601 98.117 83.1195 98.117C82.4348 98.117 81.8195 97.9653 81.2735 97.662C80.7361 97.35 80.3115 96.9167 79.9995 96.362C79.6961 95.7987 79.5445 95.1487 79.5445 94.412C79.5445 93.6753 79.6918 93.0297 79.9865 92.475C80.2898 91.9117 80.7101 91.4783 81.2475 91.175C81.7935 90.8717 82.4175 90.72 83.1195 90.72C83.7955 90.72 84.3978 90.8673 84.9265 91.162C85.4551 91.4567 85.8668 91.8727 86.1615 92.41C86.4561 92.9387 86.6035 93.5497 86.6035 94.243ZM85.0565 93.775C85.0478 93.229 84.8528 92.7913 84.4715 92.462C84.0901 92.1327 83.6178 91.968 83.0545 91.968C82.5431 91.968 82.1055 92.1327 81.7415 92.462C81.3775 92.7827 81.1608 93.2203 81.0915 93.775H85.0565ZM90.6619 98.117C90.0986 98.117 89.5916 98.0173 89.1409 97.818C88.6989 97.61 88.3479 97.3327 88.0879 96.986C87.8279 96.6307 87.6892 96.2363 87.6719 95.803H89.2059C89.2319 96.1063 89.3749 96.362 89.6349 96.57C89.9036 96.7693 90.2372 96.869 90.6359 96.869C91.0519 96.869 91.3726 96.791 91.5979 96.635C91.8319 96.4703 91.9489 96.2623 91.9489 96.011C91.9489 95.7423 91.8189 95.543 91.5589 95.413C91.3076 95.283 90.9046 95.14 90.3499 94.984C89.8126 94.8367 89.3749 94.6937 89.0369 94.555C88.6989 94.4163 88.4042 94.204 88.1529 93.918C87.9102 93.632 87.7889 93.255 87.7889 92.787C87.7889 92.4057 87.9016 92.059 88.1269 91.747C88.3522 91.4263 88.6729 91.175 89.0889 90.993C89.5136 90.811 89.9989 90.72 90.5449 90.72C91.3596 90.72 92.0139 90.928 92.5079 91.344C93.0106 91.7513 93.2792 92.3103 93.3139 93.021H91.8319C91.8059 92.7003 91.6759 92.4447 91.4419 92.254C91.2079 92.0633 90.8916 91.968 90.4929 91.968C90.1029 91.968 89.8039 92.0417 89.5959 92.189C89.3879 92.3363 89.2839 92.5313 89.2839 92.774C89.2839 92.9647 89.3532 93.125 89.4919 93.255C89.6306 93.385 89.7996 93.489 89.9989 93.567C90.1982 93.6363 90.4929 93.7273 90.8829 93.84C91.4029 93.9787 91.8276 94.1217 92.1569 94.269C92.4949 94.4077 92.7852 94.6157 93.0279 94.893C93.2706 95.1703 93.3962 95.5387 93.4049 95.998C93.4049 96.4053 93.2922 96.7693 93.0669 97.09C92.8416 97.4107 92.5209 97.662 92.1049 97.844C91.6976 98.026 91.2166 98.117 90.6619 98.117ZM95.7603 89.888C95.4916 89.888 95.2663 89.797 95.0843 89.615C94.9023 89.433 94.8113 89.2077 94.8113 88.939C94.8113 88.6703 94.9023 88.445 95.0843 88.263C95.2663 88.081 95.4916 87.99 95.7603 87.99C96.0203 87.99 96.2413 88.081 96.4233 88.263C96.6053 88.445 96.6963 88.6703 96.6963 88.939C96.6963 89.2077 96.6053 89.433 96.4233 89.615C96.2413 89.797 96.0203 89.888 95.7603 89.888ZM96.4883 90.837V98H95.0063V90.837H96.4883ZM101.32 90.72C101.875 90.72 102.364 90.8327 102.789 91.058C103.222 91.2747 103.56 91.5477 103.803 91.877V90.837H105.298V98.117C105.298 98.7757 105.159 99.3607 104.882 99.872C104.605 100.392 104.202 100.799 103.673 101.094C103.153 101.389 102.529 101.536 101.801 101.536C100.83 101.536 100.024 101.306 99.383 100.847C98.7417 100.396 98.3777 99.781 98.291 99.001H99.76C99.8727 99.3737 100.111 99.6727 100.475 99.898C100.848 100.132 101.29 100.249 101.801 100.249C102.399 100.249 102.88 100.067 103.244 99.703C103.617 99.339 103.803 98.8103 103.803 98.117V96.921C103.552 97.259 103.209 97.545 102.776 97.779C102.351 98.0043 101.866 98.117 101.32 98.117C100.696 98.117 100.124 97.961 99.604 97.649C99.0927 97.3283 98.6853 96.8863 98.382 96.323C98.0873 95.751 97.94 95.1053 97.94 94.386C97.94 93.6667 98.0873 93.0297 98.382 92.475C98.6853 91.9203 99.0927 91.4913 99.604 91.188C100.124 90.876 100.696 90.72 101.32 90.72ZM103.803 94.412C103.803 93.918 103.699 93.489 103.491 93.125C103.292 92.761 103.027 92.4837 102.698 92.293C102.369 92.1023 102.013 92.007 101.632 92.007C101.251 92.007 100.895 92.1023 100.566 92.293C100.237 92.475 99.968 92.748 99.76 93.112C99.5607 93.4673 99.461 93.892 99.461 94.386C99.461 94.88 99.5607 95.3133 99.76 95.686C99.968 96.0587 100.237 96.3447 100.566 96.544C100.904 96.7347 101.259 96.83 101.632 96.83C102.013 96.83 102.369 96.7347 102.698 96.544C103.027 96.3533 103.292 96.076 103.491 95.712C103.699 95.3393 103.803 94.906 103.803 94.412ZM110.859 90.72C111.422 90.72 111.925 90.837 112.367 91.071C112.817 91.305 113.168 91.6517 113.42 92.111C113.671 92.5703 113.797 93.125 113.797 93.775V98H112.328V93.996C112.328 93.3547 112.167 92.865 111.847 92.527C111.526 92.1803 111.088 92.007 110.534 92.007C109.979 92.007 109.537 92.1803 109.208 92.527C108.887 92.865 108.727 93.3547 108.727 93.996V98H107.245V90.837H108.727V91.656C108.969 91.3613 109.277 91.1317 109.65 90.967C110.031 90.8023 110.434 90.72 110.859 90.72Z" fill="white"/>
</svg>
