<svg width="27" height="27" viewBox="0 0 27 27" fill="none" xmlns="http://www.w3.org/2000/svg">
<path d="M20.0391 0.84375H6.96094C6.51354 0.844252 6.08461 1.0222 5.76825 1.33856C5.45189 1.65492 5.27394 2.08385 5.27344 2.53125V24.4688C5.27394 24.9161 5.45189 25.3451 5.76825 25.6614C6.08461 25.9778 6.51354 26.1557 6.96094 26.1562H20.0391C20.4865 26.1557 20.9154 25.9778 21.2317 25.6614C21.5481 25.3451 21.7261 24.9161 21.7266 24.4688V2.53125C21.7261 2.08385 21.5481 1.65492 21.2317 1.33856C20.9154 1.0222 20.4865 0.844252 20.0391 0.84375ZM20.0391 2.53125V4.21875H6.96094V2.53125H20.0391ZM20.0391 5.90625L20.0396 17.7188H6.96094V5.90625H20.0391ZM20.0391 24.4688H6.96094V19.4062H20.0399V24.4688H20.0391Z" fill="#39425D"/>
<path d="M12.6562 21.0938H14.3438V22.7812H12.6562V21.0938Z" fill="#39425D"/>
</svg>
