<svg width="28" height="29" viewBox="0 0 28 29" fill="none" xmlns="http://www.w3.org/2000/svg">
<path d="M0 28.6334V22.1217L6.89466 15.2271L0.957592 9.25169C0.651163 8.94526 0.42798 8.60053 0.288044 8.21749C0.147086 7.83446 0.0766073 7.45142 0.0766073 7.06838C0.0766073 6.68535 0.147086 6.30895 0.288044 5.93919C0.42798 5.56841 0.651163 5.22981 0.957592 4.92338L3.86867 2.01229C4.1751 1.70587 4.51984 1.48217 4.90287 1.34121C5.28591 1.20128 5.66895 1.13131 6.05198 1.13131C6.43502 1.13131 6.81193 1.20128 7.18271 1.34121C7.55247 1.48217 7.89056 1.70587 8.19699 2.01229L14.1724 7.98767L21.0287 1.09301C21.1819 0.939792 21.3479 0.82488 21.5267 0.748273C21.7054 0.671666 21.8969 0.633362 22.1012 0.633362C22.3055 0.633362 22.5032 0.671666 22.6942 0.748273C22.8862 0.82488 23.0588 0.939792 23.212 1.09301L27.5404 5.42132C27.6936 5.57454 27.8085 5.74052 27.8851 5.91927C27.9617 6.09802 28 6.28954 28 6.49383C28 6.69811 27.9617 6.89627 27.8851 7.0883C27.8085 7.27931 27.6936 7.45142 27.5404 7.60463L20.684 14.461L26.6211 20.4364C26.9275 20.7428 27.1507 21.0875 27.2906 21.4706C27.4316 21.8536 27.5021 22.2366 27.5021 22.6197C27.5021 23.0027 27.4316 23.3791 27.2906 23.7489C27.1507 24.1197 26.9275 24.4583 26.6211 24.7647L23.71 27.6758C23.4036 27.9822 23.065 28.2054 22.6942 28.3453C22.3244 28.4863 21.948 28.5568 21.565 28.5568C21.1819 28.5568 20.7989 28.4863 20.4159 28.3453C20.0328 28.2054 19.6881 27.9822 19.3817 27.6758L13.4063 21.7004L6.51163 28.6334H0ZM9.07798 13.0438L11.9891 10.1327L10.1505 8.2941L8.3119 10.0944L6.16689 7.94937L7.96717 6.11079L6.01368 4.19561L3.1409 7.10669L9.07798 13.0438ZM21.5267 25.4925L24.4378 22.5814L22.4843 20.6662L20.684 22.4665L18.5007 20.3215L20.3393 18.4829L18.4624 16.6443L15.5513 19.5554L21.5267 25.4925ZM3.0643 25.5691H5.2093L19.9562 10.8604L17.7729 8.67714L3.0643 23.4241V25.5691ZM22.1012 8.67714L24.2845 6.49383L22.1012 4.34882L19.9562 6.49383L22.1012 8.67714Z" fill="#E4A951"/>
</svg>
